<?xml version="1.0" encoding="utf-8"?>
<!-- Generator: Adobe Illustrator 22.1.0, SVG Export Plug-In . SVG Version: 6.00 Build 0)  -->
<svg version="1.1" id="Слой_1" xmlns="http://www.w3.org/2000/svg" xmlns:xlink="http://www.w3.org/1999/xlink" x="0px" y="0px"
	 viewBox="0 0 442.8 90.9" style="enable-background:new 0 0 442.8 90.9;" xml:space="preserve">
<style type="text/css">
	.st0{fill:#C1C1C1;}
</style>
<title>light_logo</title>
<path class="st0" d="M0,27.3h2.7v34.5h14.6v3.1H0V27.3z"/>
<path class="st0" d="M33,61.8h7.2V30.5H33v-3.1h17.3v3.1H43v31.4h7.2v3.1H33V61.8z"/>
<path class="st0" d="M65.8,46.1c0-12,5.1-19.4,12.5-19.4c3.8,0,6.2,2.4,7.7,4.5l-1.6,2.3c-1.4-2-3.2-3.6-6.1-3.6
	c-5.9,0-9.6,6.2-9.6,16.1s3.5,16.3,9.4,16.3c2.2,0.1,4.2-0.9,5.6-2.5V49h-6.2v-3h8.8v15.3c-1.9,2.7-5.1,4.3-8.4,4.3
	C70.8,65.6,65.8,58.2,65.8,46.1z"/>
<path class="st0" d="M101.8,27.3h2.8v16.1h13.2V27.3h2.8v37.6h-2.8V46.7h-13.2v18.3h-2.8V27.3z"/>
<path class="st0" d="M144.5,30.5h-9.7v-3.1H157v3.1h-9.7v34.5h-2.8L144.5,30.5z"/>
<path class="st0" d="M248.3,60l1.7-2.5c2.2,3,5.2,4.9,8.6,4.9c4.3,0,6.9-2.8,6.9-6.7c0-4.4-2.4-5.7-5.3-7.4l-4.3-2.5
	c-2.7-1.5-6.2-3.9-6.2-9.5s3.8-9.6,9-9.6c3.4,0.1,6.6,1.8,8.6,4.6l-1.5,2.4c-1.7-2.3-4.3-3.6-7.1-3.7c-3.2-0.2-5.9,2.2-6.1,5.4
	c0,0.3,0,0.5,0,0.8c0,4,2.9,5.5,5.2,6.8l4.2,2.5c3.5,1.8,6.4,4.3,6.4,10c0,5.9-3.8,10.4-9.8,10.4C254.2,65.6,250.7,63.3,248.3,60z"
	/>
<path class="st0" d="M291.6,30.5h-9.7v-3.1H304v3.1h-9.7v34.5h-2.8V30.5z"/>
<path class="st0" d="M318.3,50.8V27.3h2.8v23.3c0,8.7,3,11.7,6.6,11.7s6.7-2.9,6.7-11.7V27.3h2.7v23.5c0,11.1-4.2,14.8-9.4,14.8
	S318.3,61.9,318.3,50.8z"/>
<path class="st0" d="M353.4,27.3h6.8c8.7,0,13.1,7,13.1,18.6s-4.4,19-13,19h-6.9L353.4,27.3z M360,61.9c7.1,0,10.4-6.2,10.4-15.9
	s-3.3-15.6-10.4-15.6h-3.8v31.5H360z"/>
<path class="st0" d="M388.6,61.8h7.2V30.5h-7.2v-3.1h17.2v3.1h-7.2v31.4h7.2v3.1h-17.2V61.8z"/>
<path class="st0" d="M421.2,46c0-12,4.5-19.3,10.8-19.3s10.8,7.3,10.8,19.3s-4.5,19.6-10.9,19.6S421.2,58.1,421.2,46z M439.9,46
	c0-10-3.2-16-8-16s-7.9,6.1-7.9,16.1s3.2,16.3,7.9,16.3S440,56.1,439.9,46L439.9,46z"/>
<rect x="208.8" y="1.8" class="st0" width="2.4" height="75.4"/>
<rect x="191.9" y="83.7" class="st0" width="20.2" height="2.8"/>
<rect x="189.9" y="74.8" class="st0" width="3" height="11.6"/>
<rect x="210.7" y="74.8" class="st0" width="3" height="11.6"/>
<rect x="190.9" y="74.8" class="st0" width="20.2" height="2.8"/>
<rect x="192.9" y="88.1" class="st0" width="17.8" height="2.8"/>
<rect x="227.7" y="12" class="st0" width="2.4" height="31.6"/>
<rect x="173.7" y="10.6" class="st0" width="2.4" height="29.6"/>
<rect x="182.2" y="37.8" transform="matrix(0.9059 -0.4236 0.4236 0.9059 -7.3735 83.1822)" class="st0" width="2.6" height="40.7"/>
<rect x="201.7" y="59.2" transform="matrix(0.4299 -0.9029 0.9029 0.4299 71.3546 233.7367)" class="st0" width="38.2" height="2.4"/>
<rect x="172.9" y="5.2" transform="matrix(0.882 -0.4713 0.4713 0.882 18.7373 87.5782)" class="st0" width="22.6" height="2.4"/>
<rect x="193.6" y="0" class="st0" width="18.9" height="2.8"/>
<polygon class="st0" points="230.1,12 227.7,12.6 212.4,2.8 212.4,0 "/>
<rect x="191.7" y="85.6" class="st0" width="2.9" height="2.9"/>
<rect x="209.4" y="85.9" class="st0" width="2.9" height="2.9"/>
<rect x="208" y="17.8" transform="matrix(0.882 -0.4713 0.4713 0.882 16.9459 105.6195)" class="st0" width="22.6" height="2.4"/>
<rect x="218.5" y="20.4" transform="matrix(0.6644 -0.7473 0.7473 0.6644 49.5666 175.0746)" class="st0" width="2.4" height="23.8"/>
<rect x="191.8" y="6.7" transform="matrix(0.867 -0.4983 0.4983 0.867 4.7949 101.8564)" class="st0" width="2.8" height="70.5"/>
<rect x="173.9" y="5.7" transform="matrix(0.9507 -0.3102 0.3102 0.9507 7.3197 59.8593)" class="st0" width="35.9" height="2.4"/>
<rect x="185.4" y="30.6" transform="matrix(0.5346 -0.8451 0.8451 0.5346 49.2071 178.5946)" class="st0" width="2.7" height="28"/>
<rect x="182.6" y="62.1" transform="matrix(0.2627 -0.9649 0.9649 0.2627 82.6458 235.1106)" class="st0" width="25.1" height="2.7"/>
</svg>
